<?xml version="1.0" encoding="utf-8"?>
<!-- Generator: Adobe Illustrator 27.3.1, SVG Export Plug-In . SVG Version: 6.00 Build 0)  -->
<svg version="1.1" id="Layer_1" xmlns="http://www.w3.org/2000/svg" xmlns:xlink="http://www.w3.org/1999/xlink" x="0px" y="0px"
	 viewBox="0 0 20 20" style="enable-background:new 0 0 20 20;" xml:space="preserve">
<style type="text/css">
	.st0{fill:#A8AAAD;}
</style>
<path class="st0" d="M17.07,2.93C15.26,1.12,12.76,0,10,0S4.74,1.12,2.93,2.93C1.12,4.73,0,7.23,0,10c0,5.52,4.48,10,10,10
	c2.76,0,5.26-1.12,7.07-2.93S20,12.76,20,10C20,7.23,18.88,4.73,17.07,2.93z M16.13,15.29c0,0.14-0.03,0.26-0.14,0.34
	c-0.11,0.08-0.23,0.1-0.36,0.05c-0.02-0.01-1.65-0.59-3.35-0.61c-1.22-0.02-1.5,0.24-1.86,0.46c-0.13,0.08-0.21,0.12-0.4,0.12
	s-0.27-0.05-0.4-0.12c-0.36-0.21-0.64-0.47-1.86-0.46c-1.7,0.02-3.34,0.61-3.35,0.61c-0.13,0.05-0.26,0.03-0.37-0.05
	c-0.11-0.08-0.16-0.2-0.16-0.34v-3.24h0.8v2.67c0.56-0.2,1.84-0.48,3.08-0.48c0.86,0,1.6,0.15,1.87,0.34c0,0,0.23,0.1,0.4,0.1
	s0.4-0.1,0.4-0.1c0.27-0.19,0.99-0.34,1.85-0.34c1.24,0,2.5,0.28,3.06,0.48v-2.67h0.8V15.29z M11.79,8.76l-1.36,3.96H9.56L8.25,8.76
	H8.24v3.96H7.1V7.55h1.72l1.19,3.37h0.01l1.2-3.37h1.72v5.17H11.8V8.76H11.79z M16.13,10.39h-0.8V5.83c-0.56-0.22-1.76-0.7-3.06-0.7
	c-1.11,0-1.58,0.29-1.85,0.45c0,0-0.16,0.11-0.4,0.11c-0.24,0-0.4-0.11-0.4-0.11C9.34,5.42,8.86,5.13,7.75,5.13
	c-1.3,0-2.52,0.48-3.08,0.7v4.56h-0.8V5.3l0.21-0.11C4.15,5.15,5.88,4.3,7.75,4.3c1.2,0,1.9,0.31,2.27,0.54
	c0.37-0.24,1.07-0.54,2.27-0.54c1.87,0,3.58,0.85,3.65,0.89l0.19,0.11V10.39z"/>
</svg>
